{"glyphs":{"0":{"ha":694,"x_min":0,"x_max":0,"o":""}," ":{"ha":323,"x_min":0,"x_max":0,"o":""},"A":{"ha":743,"x_min":18,"x_max":714,"o":"m 357 738 q 409 634 373 727 q 490 429 446 542 q 590 205 534 316 q 714 8 646 95 q 643 3 678 3 l 601 3 l 397 436 l 389 436 l 37 -1 q 18 125 18 73 q 31 252 20 204 q 71 346 42 300 q 160 460 100 393 q 210 505 185 488 q 268 542 234 523 q 312 569 301 561 q 323 590 323 578 q 273 676 323 634 q 189 738 222 718 l 357 738 l 357 738 m 336 561 q 182 451 234 521 q 111 272 129 381 q 107 217 107 248 q 108 172 107 192 q 111 142 110 151 l 119 142 l 380 468 q 365 495 372 480 q 351 526 358 510 q 336 561 345 542 l 336 561 z "},"B":{"ha":610,"x_min":-14,"x_max":568,"o":"m -14 759 q 82 751 57 759 q 135 708 106 744 q 212 750 177 737 q 306 763 247 763 q 397 738 368 756 q 427 675 427 719 q 405 608 427 634 q 339 555 383 581 q 293 526 295 528 q 484 457 399 510 q 568 276 568 404 q 523 133 568 189 q 412 49 478 77 q 287 12 346 20 q 185 3 228 3 l 70 3 l 70 658 q 58 701 70 686 q 22 731 47 716 q -14 759 -2 747 l -14 759 m 264 738 q 191 716 223 738 q 160 687 160 695 q 158 654 160 690 q 157 590 157 618 q 160 531 157 561 q 292 568 241 543 q 343 650 343 593 q 320 711 343 685 q 264 738 296 738 l 264 738 m 210 517 q 169 496 179 517 q 158 435 158 475 q 159 402 158 425 q 160 368 160 379 l 160 36 q 243 40 222 36 q 362 77 314 54 q 439 146 410 100 q 468 268 468 192 q 447 357 468 313 q 390 438 426 402 q 307 495 354 474 q 210 517 260 517 l 210 517 z "},"C":{"ha":700,"x_min":11,"x_max":649,"o":"m 11 358 q 46 532 11 459 q 143 648 82 604 q 283 712 204 692 q 455 732 363 732 q 502 730 486 732 l 583 730 l 618 730 l 618 622 q 569 649 613 624 q 485 686 526 673 q 392 700 444 700 q 269 657 339 700 q 148 530 198 613 q 97 335 97 447 q 124 226 97 296 q 218 97 150 156 q 400 39 286 39 q 509 56 456 39 q 610 132 562 73 q 631 122 625 124 q 642 118 637 119 q 649 117 647 117 q 618 81 646 107 q 524 32 590 56 q 353 8 458 8 q 190 50 269 8 q 61 172 111 92 q 11 358 11 252 l 11 358 z "},"D":{"ha":829,"x_min":8,"x_max":781,"o":"m 32 751 q 75 773 61 766 q 103 801 88 780 q 142 851 117 822 q 294 775 190 798 q 521 725 399 753 q 712 622 643 697 q 781 385 781 546 q 726 196 781 281 q 578 61 672 110 q 375 13 485 13 q 195 58 280 13 q 59 182 111 103 q 8 356 8 261 q 49 528 8 458 q 146 636 90 598 q 251 692 202 675 q 313 712 300 708 l 390 712 q 290 671 366 703 q 154 566 215 638 q 93 369 93 493 q 132 193 93 269 q 243 78 172 118 q 407 38 314 38 q 533 71 477 38 q 624 152 588 104 q 677 251 659 201 q 696 332 696 301 l 696 401 q 638 591 696 513 q 485 709 581 669 q 274 751 390 748 l 32 751 l 32 751 z "},"E":{"ha":747,"x_min":15,"x_max":716,"o":"m 15 371 q 80 594 15 510 q 245 710 144 677 q 464 743 346 743 q 558 740 521 743 q 623 732 595 736 q 660 728 651 728 q 697 743 676 728 l 697 471 q 672 484 698 471 q 614 507 646 496 q 557 518 583 518 l 136 518 q 101 364 101 469 q 140 218 101 292 q 254 95 178 144 q 433 46 330 46 q 600 94 530 46 q 697 193 670 143 q 716 170 716 177 q 714 162 716 166 q 712 154 712 158 q 671 95 712 130 q 559 34 629 60 q 410 8 489 8 q 261 35 333 8 q 134 111 189 62 q 47 226 78 160 q 15 371 15 293 l 15 371 m 433 712 q 143 537 216 712 q 280 536 144 537 q 426 535 416 535 q 539 540 496 535 q 612 557 583 545 q 682 592 641 568 q 578 681 641 656 q 433 712 516 706 l 433 712 z "},"F":{"ha":514,"x_min":13,"x_max":468,"o":"m 13 729 l 465 729 q 455 678 461 703 q 446 637 449 654 q 231 708 375 708 q 209 710 222 708 q 192 711 196 711 q 164 693 172 711 q 156 615 156 674 l 156 117 l 412 117 q 440 112 424 117 q 468 108 457 108 q 455 80 461 89 q 430 48 448 71 q 401 10 411 26 q 297 70 338 53 q 194 86 255 86 q 147 64 174 86 l 147 -125 q 127 -178 147 -163 q 65 -208 107 -193 l 65 -162 l 65 464 l 65 502 l 65 683 q 41 705 63 685 q 13 729 18 724 l 13 729 z "},"G":{"ha":700,"x_min":15,"x_max":662,"o":"m 15 400 q 49 538 15 475 q 136 645 82 601 q 252 714 190 689 q 374 743 315 739 q 411 744 385 744 q 502 742 438 744 q 592 739 565 739 q 651 743 630 739 l 651 615 q 581 682 617 660 q 505 712 545 705 q 412 719 466 719 q 235 670 303 719 q 139 539 168 620 q 110 361 110 459 q 127 249 110 307 q 180 142 144 192 q 272 62 216 93 q 403 32 329 32 q 509 52 453 32 q 657 146 565 73 q 662 70 662 107 q 661 28 662 53 q 660 -6 660 3 q 626 -170 660 -111 q 504 -253 593 -230 q 538 -219 514 -247 q 597 -125 563 -191 l 597 52 q 537 32 575 49 q 463 4 498 15 q 374 -6 429 -6 q 248 22 330 -6 q 90 140 165 50 q 15 400 15 230 l 15 400 z "},"H":{"ha":743,"x_min":-58,"x_max":691,"o":"m -58 969 q 15 982 -38 982 q 108 976 57 982 q 151 969 158 969 q 142 918 148 963 q 136 760 136 873 q 138 654 136 694 q 248 716 178 688 q 383 744 318 744 q 557 694 487 744 q 659 562 626 645 q 691 379 691 479 q 667 216 691 311 q 589 41 643 121 q 451 -60 535 -38 q 529 28 495 -20 q 588 164 563 76 q 614 379 614 252 q 544 623 614 544 q 351 703 475 703 q 222 676 269 703 q 159 601 176 649 q 142 478 142 552 l 142 160 q 147 83 142 149 q 157 -3 152 17 l 52 -3 q 64 221 64 33 q 63 325 64 268 q 63 380 63 382 l 63 463 l 63 763 q 44 894 63 849 q 1 952 25 939 q -58 969 -24 965 l -58 969 z "},"I":{"ha":242,"x_min":8,"x_max":179,"o":"m 8 729 l 179 729 l 179 21 l 93 21 l 93 612 q 89 663 93 647 q 67 693 84 679 q 8 729 50 707 l 8 729 z "},"J":{"ha":243,"x_min":-8,"x_max":179,"o":"m -8 724 l 179 724 l 179 166 q 163 58 179 141 q 110 -104 148 -24 q 13 -204 73 -184 q 77 -49 59 -146 q 96 233 96 48 l 96 625 q 68 680 91 646 q -8 724 45 714 l -8 724 z "},"K":{"ha":730,"x_min":-62,"x_max":718,"o":"m -62 999 l 139 996 l 139 921 q 138 747 139 840 q 136 636 136 654 q 142 569 136 586 q 164 553 147 553 q 308 580 259 553 q 375 644 357 608 q 412 753 392 680 q 510 744 460 744 q 452 646 481 681 q 372 584 422 610 q 233 531 322 558 q 355 453 300 514 q 478 284 409 392 q 591 126 547 176 q 686 76 634 76 q 702 78 692 76 q 718 81 711 81 q 685 64 701 76 q 650 31 670 52 q 618 0 630 10 q 596 -10 606 -10 q 585 -6 591 -10 q 470 112 510 45 q 382 288 430 179 q 292 453 335 398 q 175 522 250 507 l 139 522 q 138 192 138 441 q 139 1 138 35 l 43 1 l 43 895 q -62 999 43 989 l -62 999 z "},"L":{"ha":510,"x_min":-29,"x_max":480,"o":"m -29 989 q 6 988 -17 989 q 42 987 30 987 q 143 996 101 987 l 142 26 q 169 26 150 26 q 210 25 188 25 q 257 26 243 25 q 380 61 313 33 q 480 107 447 89 q 465 72 471 91 q 450 22 458 53 q 436 -26 443 -9 q 395 -16 420 -24 q 346 -5 369 -9 q 280 -1 322 -1 l 52 -1 q 53 182 53 22 q 52 409 53 266 q 51 656 52 552 q 50 803 50 761 q 51 838 50 818 q 52 871 52 858 q 36 931 52 906 q -29 989 21 955 l -29 989 z "},"M":{"ha":1333,"x_min":-4,"x_max":1268,"o":"m -4 376 q 28 530 -4 461 q 115 648 60 600 q 241 721 170 695 q 388 746 312 746 q 490 736 448 746 q 560 710 532 726 q 614 669 588 694 q 663 624 641 645 q 702 657 681 639 q 754 693 723 674 q 825 725 785 712 q 914 738 866 738 q 1061 705 979 738 q 1206 594 1144 673 q 1268 385 1268 515 q 1219 192 1268 280 q 1085 51 1170 103 q 897 -1 1000 -1 q 794 16 827 -1 q 739 76 761 33 q 822 26 789 38 q 896 15 855 15 q 1045 69 982 15 q 1141 209 1108 122 q 1174 392 1174 295 q 1151 519 1174 460 q 1090 622 1128 578 q 1004 691 1052 666 q 904 715 955 715 q 798 689 850 715 q 714 625 746 664 q 682 553 682 587 q 681 300 681 457 q 681 194 681 232 q 681 126 681 156 q 682 66 682 95 q 682 7 682 36 l 581 7 q 594 141 584 26 q 604 307 604 256 l 604 492 q 583 596 604 542 q 516 687 563 650 q 397 724 469 724 q 240 682 310 724 q 131 565 171 641 q 92 392 92 490 q 129 204 92 287 q 238 76 167 122 q 404 31 309 31 q 481 42 451 31 q 535 92 512 53 q 450 17 511 36 q 335 -1 388 -1 q 252 16 307 -1 q 138 75 198 33 q 37 193 79 117 q -4 376 -4 268 l -4 376 z "},"N":{"ha":757,"x_min":-24,"x_max":685,"o":"m 639 586 q 615 685 639 644 q 553 764 592 726 l 685 764 l 671 690 l 671 93 l 685 24 l 660 24 l 122 660 l 122 204 q 127 130 122 159 q 139 81 132 100 q 156 46 146 61 q 179 7 165 30 l 60 7 q 80 107 80 68 l 80 687 q 68 709 80 701 q 23 732 56 716 q -24 757 -9 747 l 149 757 l 639 151 l 639 586 l 639 586 z "},"O":{"ha":843,"x_min":4,"x_max":789,"o":"m 4 385 q 24 489 4 429 q 91 609 44 550 q 219 707 138 668 q 414 746 300 746 q 562 716 492 746 q 682 635 631 687 q 761 513 732 583 q 789 368 789 444 q 774 278 789 336 q 716 155 758 220 q 593 45 674 91 q 390 0 512 0 q 230 34 319 0 q 72 154 141 68 q 4 385 4 241 l 4 385 m 414 721 q 288 692 347 721 q 185 614 229 664 q 117 500 142 564 q 93 368 93 436 q 122 221 93 286 q 198 112 151 156 q 297 47 245 68 q 390 25 348 25 q 560 77 488 25 q 670 208 632 128 q 707 371 707 288 q 674 540 707 471 q 591 648 640 609 q 494 704 542 688 q 414 721 446 721 l 414 721 z "},"P":{"ha":771,"x_min":-52,"x_max":736,"o":"m 143 639 q 190 668 144 639 q 292 714 237 696 q 424 732 347 732 q 562 696 489 732 q 686 584 635 660 q 736 397 736 508 q 679 194 736 288 q 531 45 621 100 q 354 -10 441 -10 q 301 -2 330 -10 q 234 20 273 5 q 166 44 195 34 q 159 -49 159 13 q 155 -144 159 -111 q 130 -211 152 -177 q 57 -265 107 -245 q 75 -180 67 -231 q 85 -83 82 -129 q 89 -17 89 -37 l 89 404 q 78 538 89 479 q 37 641 68 597 q -52 701 6 685 q 4 718 -15 718 q 19 714 14 718 q 25 706 23 710 q 26 701 26 701 q 36 710 28 701 q 53 718 44 718 q 143 639 83 718 l 143 639 m 385 686 q 264 671 317 686 q 160 615 211 656 l 160 264 q 164 154 160 194 q 186 86 169 114 q 241 44 203 58 q 346 29 279 29 q 497 76 429 29 q 605 201 566 123 q 643 365 643 279 q 596 547 643 474 q 488 652 549 619 q 385 686 426 686 l 385 686 z "},"Q":{"ha":763,"x_min":8,"x_max":743,"o":"m 8 385 q 34 513 8 451 q 107 624 59 574 q 223 702 155 673 q 375 730 292 730 q 447 723 415 730 q 498 706 479 715 q 539 682 516 696 q 575 661 562 668 q 618 712 613 707 q 640 718 623 717 q 690 730 656 719 l 743 730 q 683 675 701 697 q 659 620 666 652 q 653 524 653 587 l 653 -175 q 628 -214 649 -193 q 590 -258 608 -235 q 576 -104 576 -228 l 576 -70 q 568 60 576 22 q 502 29 542 48 q 450 6 462 9 q 418 3 438 3 l 368 3 q 187 52 270 3 q 56 189 104 101 q 8 385 8 276 l 8 385 m 392 691 q 238 643 304 691 q 135 516 171 595 q 100 347 100 436 q 141 184 100 256 q 245 72 182 112 q 375 33 309 33 q 519 76 477 33 q 568 147 561 119 l 568 608 q 488 674 519 657 q 392 691 456 691 l 392 691 z "},"R":{"ha":681,"x_min":0,"x_max":661,"o":"m 157 673 q 346 743 262 743 q 425 727 387 743 q 487 680 463 710 q 511 608 511 649 q 475 498 511 546 q 392 420 439 450 q 294 370 346 391 q 243 349 243 349 q 337 285 301 320 q 429 186 373 250 q 534 81 484 121 q 661 7 584 40 q 561 3 626 3 l 511 3 l 222 310 l 170 336 l 170 -1 l 95 3 l 95 475 q 84 622 95 574 q 57 686 74 669 q 0 722 40 703 q 68 720 30 720 q 121 711 106 719 q 157 673 136 703 l 157 673 m 314 696 q 250 686 277 696 q 196 659 222 676 q 165 640 169 642 l 165 360 q 357 452 290 402 q 425 576 425 502 q 393 660 425 624 q 314 696 361 696 l 314 696 z "},"S":{"ha":565,"x_min":4,"x_max":525,"o":"m 4 532 q 92 691 4 642 q 310 740 180 740 q 418 722 350 740 q 525 682 486 704 q 500 621 510 652 q 478 571 490 589 q 396 670 445 633 q 261 707 348 707 q 157 692 203 707 q 84 646 111 677 q 57 571 57 615 q 111 471 57 498 q 281 418 165 443 q 457 352 397 392 q 517 218 517 312 q 477 104 517 154 q 373 29 437 55 q 242 3 309 3 q 151 15 212 3 q 50 48 89 28 q 67 94 55 63 q 87 161 78 124 q 167 72 117 103 q 275 37 217 41 q 364 57 320 37 q 435 111 408 76 q 463 188 463 145 q 408 285 463 259 q 238 337 354 312 q 63 401 123 361 q 4 532 4 440 l 4 532 z "},"T":{"ha":790,"x_min":15,"x_max":758,"o":"m 15 738 l 758 738 q 721 684 742 714 q 682 626 699 655 q 611 680 626 671 q 574 694 596 690 q 526 707 551 699 l 439 707 l 439 4 l 358 4 l 358 689 q 360 691 359 689 q 361 694 361 693 q 296 707 361 707 q 199 690 239 707 q 100 626 159 673 q 61 677 88 643 q 15 738 34 711 l 15 738 z "},"U":{"ha":729,"x_min":8,"x_max":669,"o":"m 493 738 q 569 742 519 742 l 669 742 l 669 10 l 573 10 q 575 67 573 45 q 577 93 577 90 q 452 17 512 41 q 319 -7 391 -7 q 227 4 261 -7 q 154 44 202 13 q 57 147 105 75 q 8 328 8 219 q 26 448 8 391 q 66 545 44 505 q 113 618 89 586 q 136 654 136 651 q 117 689 136 663 q 80 726 97 715 l 239 726 q 178 611 207 670 q 127 477 150 553 q 104 328 104 402 q 124 206 104 276 q 199 81 144 136 q 351 25 255 25 q 526 89 470 32 q 582 232 582 146 l 582 335 l 582 526 q 565 664 582 618 q 493 738 549 710 l 493 738 z "},"V":{"ha":704,"x_min":0,"x_max":663,"o":"m 0 738 q 70 740 25 740 q 193 738 91 740 q 177 713 191 734 q 162 676 162 693 q 244 495 187 617 q 339 295 302 372 q 396 176 376 217 q 451 279 404 183 q 536 477 498 375 q 574 636 574 580 q 567 680 574 662 q 550 713 561 698 q 525 750 540 728 l 663 750 l 663 742 l 379 0 q 294 180 354 47 q 205 377 234 314 q 121 543 177 440 q 0 738 65 646 l 0 738 z "},"W":{"ha":1099,"x_min":8,"x_max":1013,"o":"m 844 746 q 954 751 873 751 q 1003 750 991 751 q 994 404 994 570 q 997 251 994 321 q 1004 128 1000 182 q 1013 18 1008 75 l 925 18 l 925 75 q 863 46 899 68 q 797 13 827 24 q 715 3 768 3 q 547 75 620 3 q 439 10 498 26 q 337 -5 379 -5 q 162 36 236 -5 q 48 150 87 77 q 8 315 8 223 q 23 429 8 371 q 57 537 38 488 q 95 624 77 587 q 113 661 113 661 q 65 733 113 673 l 225 733 q 150 598 181 671 q 103 464 119 526 q 87 380 87 403 q 150 145 87 238 q 378 35 212 51 q 469 60 422 35 q 515 107 515 85 q 465 190 495 125 q 435 380 435 255 q 463 546 435 438 q 490 661 490 654 q 476 696 490 670 q 435 750 462 722 l 603 750 q 574 679 600 740 q 532 550 548 618 q 517 388 517 482 q 541 224 517 303 q 620 93 564 144 q 764 42 675 42 q 873 79 836 50 q 922 150 911 109 q 933 250 933 191 q 932 287 933 262 q 932 323 932 311 q 932 421 932 353 q 933 517 933 489 q 932 581 933 568 q 918 650 930 621 q 888 700 905 679 q 844 746 871 721 l 844 746 z "},"X":{"ha":819,"x_min":23,"x_max":773,"o":"m 340 567 q 398 635 348 574 q 490 722 448 695 q 591 750 532 750 q 623 746 609 750 q 648 736 636 742 q 667 726 660 730 q 634 675 642 689 q 621 647 626 661 q 607 615 615 633 q 571 657 586 644 q 536 671 556 671 q 484 651 518 671 q 416 599 450 632 q 364 528 382 567 l 764 11 l 773 8 l 654 8 l 347 465 q 275 363 324 451 q 188 171 227 275 q 150 0 150 66 q 119 -1 137 0 q 94 -1 101 -1 q 32 15 61 -1 l 315 506 q 255 571 295 526 q 189 641 215 616 q 132 680 163 665 q 62 696 100 696 q 43 684 55 691 q 23 671 31 676 q 70 710 48 702 q 135 718 92 718 q 202 702 172 718 q 249 667 231 686 q 296 614 267 649 q 340 567 325 579 l 340 567 z "},"Y":{"ha":730,"x_min":-7,"x_max":692,"o":"m 335 32 q 433 62 398 32 q 479 142 467 92 q 490 265 490 193 q 488 358 490 295 q 486 453 486 421 q 520 653 486 578 q 653 747 554 728 l 692 747 q 632 646 662 646 q 625 647 630 646 q 618 647 620 647 q 575 554 594 647 q 563 424 566 509 q 559 263 560 338 q 551 111 557 188 q 529 -26 545 35 q 225 -262 467 -262 q 182 -254 213 -262 q 136 -239 151 -245 q 196 -246 168 -246 q 333 -209 268 -246 q 436 -111 397 -172 q 475 19 475 -49 q 474 48 475 39 q 397 9 417 17 q 353 1 377 1 l 319 1 q 146 52 215 1 q 46 183 77 103 q 15 351 15 263 q 33 495 15 394 q 62 654 51 596 q 37 694 62 674 q -7 728 12 714 q 72 732 17 732 l 164 732 l 164 693 q 118 517 143 638 q 93 336 93 396 q 103 251 93 301 q 140 150 114 201 q 215 66 166 100 q 335 32 263 32 l 335 32 z "},"Z":{"ha":896,"x_min":-29,"x_max":875,"o":"m -4 660 q 36 691 10 676 q 84 721 62 706 q 154 781 106 736 q 253 708 199 726 q 382 689 308 689 q 442 690 401 689 q 504 692 483 692 q 630 676 579 692 l 201 135 q 337 163 298 156 q 449 169 375 169 q 530 162 499 169 q 643 132 562 154 q 754 110 724 110 q 814 123 776 110 q 875 141 853 137 q 783 54 825 95 q 731 5 741 13 q 710 -3 721 -3 q 622 36 683 -3 q 506 97 560 74 q 369 119 453 119 q 238 106 282 119 q 178 72 193 92 q 155 16 163 52 q 140 -32 147 -20 q 96 -36 115 -32 q 32 -55 78 -40 q -29 -75 -14 -71 l 518 651 q 310 676 415 676 q 161 669 259 676 q -4 660 62 661 l -4 660 z "},"a":{"ha":620,"x_min":20,"x_max":632,"o":"m 20 315 q 43 429 20 376 q 110 514 67 482 q 208 546 153 546 l 289 546 l 443 546 l 443 235 l 443 203 q 537 57 443 57 q 557 64 546 57 q 580 78 568 70 q 603 90 591 85 q 632 97 614 96 q 569 38 598 58 q 497 19 539 19 q 444 32 470 19 q 399 59 418 44 q 382 74 380 74 q 318 30 346 40 q 254 19 289 19 q 141 37 186 19 q 69 90 95 54 q 31 181 42 126 q 20 315 20 237 l 20 315 m 275 521 q 189 487 226 521 q 132 401 152 453 q 113 296 113 349 q 166 109 113 158 q 254 57 219 61 q 317 74 282 58 q 351 114 351 90 q 351 133 351 120 q 350 151 350 145 q 356 293 350 196 q 362 445 362 390 q 343 505 362 488 q 275 521 323 521 l 275 521 z "},"b":{"ha":586,"x_min":10,"x_max":522,"o":"m 142 792 q 245 819 211 800 q 325 881 280 838 q 343 821 340 836 q 346 767 346 807 q 317 654 346 698 q 227 547 289 610 q 134 428 165 485 q 103 285 103 371 q 146 116 103 189 q 279 43 190 43 q 367 71 327 43 q 429 154 406 99 q 451 285 451 209 q 426 406 451 349 q 353 498 401 463 q 240 533 305 533 q 346 569 296 569 q 439 533 399 569 q 501 440 480 497 q 522 322 522 383 q 503 203 522 261 q 447 100 483 145 q 363 27 412 54 q 260 0 314 0 q 160 27 206 0 q 80 101 114 55 q 28 199 46 146 q 10 300 10 252 q 42 430 10 379 q 142 533 75 481 q 231 608 209 586 q 253 671 253 629 q 222 754 253 723 q 142 792 192 785 l 142 792 z "},"c":{"ha":547,"x_min":21,"x_max":479,"o":"m 21 294 q 51 421 21 355 q 144 530 82 486 q 294 574 207 574 q 465 482 400 574 q 362 435 439 460 q 332 516 362 498 q 260 533 302 533 q 178 506 212 533 q 126 435 143 479 q 110 342 110 391 q 141 209 110 272 q 220 110 172 147 q 318 72 269 72 q 423 104 380 72 q 479 164 467 136 q 406 62 460 97 q 280 28 352 28 q 152 64 212 28 q 56 163 92 101 q 21 294 21 224 l 21 294 z "},"d":{"ha":547,"x_min":15,"x_max":486,"o":"m 485 865 q 477 415 479 640 q 474 86 474 191 q 480 45 476 71 q 486 10 485 19 l 398 10 l 386 36 q 257 1 339 1 q 152 36 208 1 q 55 139 95 70 q 15 306 15 208 q 47 445 15 387 q 134 532 79 503 q 257 561 189 561 q 317 552 287 561 q 373 532 348 543 q 404 518 398 521 q 387 655 404 588 q 315 753 369 722 q 348 768 326 759 q 401 799 371 778 q 485 865 431 819 l 485 865 m 246 526 q 176 497 209 526 q 125 418 144 467 q 105 313 105 368 q 134 165 107 225 q 201 74 162 104 q 271 44 239 44 q 361 83 318 44 q 403 171 403 121 l 403 497 q 375 483 387 490 q 352 467 363 475 q 335 454 341 458 q 326 477 331 465 q 314 500 322 489 q 289 518 306 510 q 246 526 272 526 l 246 526 z "},"e":{"ha":547,"x_min":35,"x_max":496,"o":"m 35 297 q 46 375 35 330 q 83 463 57 419 q 155 536 109 506 q 268 565 201 565 q 402 530 342 565 q 482 407 462 495 l 118 407 l 118 318 q 149 222 130 271 q 219 124 169 172 q 351 76 270 76 q 411 84 392 76 q 453 112 430 92 q 496 146 476 133 q 411 51 459 82 q 289 21 363 21 q 159 60 218 21 q 68 164 101 100 q 35 297 35 228 l 35 297 m 262 536 q 167 503 206 536 q 119 431 128 470 l 367 432 q 343 496 364 457 q 262 536 321 534 l 262 536 z "},"f":{"ha":537,"x_min":5,"x_max":493,"o":"m 5 542 q 20 541 11 542 q 35 540 30 540 q 129 551 94 540 q 199 584 163 563 q 259 616 235 606 q 326 626 283 626 q 388 617 363 626 q 446 587 413 608 q 493 558 478 566 q 444 538 473 547 q 395 517 415 528 q 343 472 374 505 q 350 521 350 502 q 289 589 350 589 q 239 568 267 589 q 189 504 211 547 q 165 403 167 461 q 164 280 164 354 q 164 178 164 249 q 165 57 165 108 q 235 78 195 61 q 288 96 276 95 q 351 81 310 96 q 418 59 391 67 q 490 52 445 52 q 439 24 476 33 q 369 14 403 14 q 298 28 353 14 q 223 42 243 42 q 208 39 214 42 q 196 36 201 36 q 168 42 187 36 l 168 -189 q 148 -219 168 -202 q 87 -262 129 -235 l 86 336 q 80 418 86 386 q 64 468 74 450 q 30 513 55 485 q 5 542 6 541 l 5 542 z "},"g":{"ha":590,"x_min":25,"x_max":550,"o":"m 25 529 q 88 568 77 560 q 114 589 100 575 q 164 632 128 602 q 243 566 198 583 q 349 549 288 549 q 397 550 366 549 q 441 551 429 551 q 518 536 495 551 q 428 502 498 524 q 306 453 358 481 q 218 367 254 425 q 182 214 182 310 q 231 83 182 130 q 374 -7 279 35 q 509 -76 468 -49 q 550 -158 550 -104 q 502 -241 545 -191 q 343 -290 459 -290 q 121 -162 186 -290 q 186 -113 160 -139 q 231 -70 213 -87 q 278 -42 249 -53 q 251 -68 263 -57 q 233 -99 240 -80 q 225 -151 225 -117 q 268 -237 225 -205 q 349 -270 311 -270 q 425 -236 389 -270 q 460 -146 460 -202 q 420 -65 460 -87 q 281 -7 381 -43 q 131 79 181 30 q 81 228 81 128 q 119 355 81 303 q 208 434 158 406 q 327 490 258 462 q 411 529 396 517 l 25 529 l 25 529 z "},"h":{"ha":600,"x_min":-10,"x_max":533,"o":"m -10 744 q 78 768 46 756 q 131 792 110 780 q 155 804 151 804 q 164 799 158 804 l 164 492 q 203 513 172 495 q 260 539 235 531 q 315 549 284 547 q 480 475 427 549 q 533 293 533 402 q 523 123 533 212 q 481 19 512 34 l 440 19 l 440 299 q 416 430 440 382 q 358 495 391 478 q 293 513 325 513 q 201 474 238 513 q 162 393 163 436 l 162 19 q 131 13 150 13 q 103 14 123 13 q 70 15 83 15 q 90 165 80 63 q 96 337 96 227 q 92 502 96 423 q 85 610 89 582 q 60 677 79 649 q 19 722 40 705 q -10 744 -2 739 l -10 744 z "},"i":{"ha":253,"x_min":-13,"x_max":179,"o":"m -13 582 q 93 588 28 584 q 179 600 158 592 q 169 532 176 576 q 159 430 163 488 q 154 299 154 373 l 154 270 l 160 4 q 95 12 115 11 q 71 15 75 14 l 72 325 q 62 459 68 414 q 49 524 57 504 q 24 555 40 543 q -13 582 8 567 l -13 582 z "},"j":{"ha":257,"x_min":-19,"x_max":166,"o":"m -19 569 q 122 593 51 593 q 151 592 140 593 q 165 590 161 591 q 165 362 165 401 q 166 234 165 323 q 166 103 166 146 q 165 42 166 60 q 157 -78 161 -23 q 145 -175 153 -134 q 118 -246 137 -217 q 65 -283 99 -276 q 77 -166 71 -267 q 87 -1 84 -65 l 87 375 q 67 472 87 426 q -19 569 47 518 l -19 569 z "},"k":{"ha":553,"x_min":-15,"x_max":508,"o":"m -15 803 q 186 875 46 809 l 186 810 l 154 465 l 154 414 l 193 414 q 340 539 340 414 q 339 560 340 547 q 339 575 339 572 q 418 568 358 569 q 508 565 477 568 q 451 492 484 523 q 386 440 419 460 q 326 408 354 420 q 282 389 298 396 q 390 307 352 371 q 440 170 428 243 q 453 36 453 98 q 452 15 453 24 q 451 4 452 7 l 342 4 q 350 90 350 38 q 341 191 350 140 q 312 288 332 242 q 259 361 292 334 q 180 389 226 389 q 150 386 161 389 l 156 4 l 62 4 q 74 134 70 45 q 81 326 79 224 q 82 532 82 428 q 82 637 82 593 q 81 700 81 682 q 67 730 81 715 q 25 768 53 746 q -15 803 -2 789 l -15 803 z "},"l":{"ha":457,"x_min":9,"x_max":440,"o":"m 340 881 q 305 763 333 811 q 219 636 277 715 q 132 493 160 557 q 104 342 104 430 q 133 215 104 285 q 216 96 162 145 q 345 47 271 47 q 394 53 375 52 q 440 58 412 54 q 376 20 407 33 q 293 8 344 8 q 151 48 216 8 q 47 159 85 88 q 9 314 9 229 q 33 434 9 376 q 93 545 56 491 q 155 635 130 599 q 180 690 180 672 q 163 726 180 704 q 120 774 145 748 q 93 803 96 799 q 216 825 137 803 q 340 881 295 847 l 340 881 z "},"m":{"ha":990,"x_min":31,"x_max":903,"o":"m 31 561 q 78 563 46 563 l 131 563 q 221 569 185 563 q 219 541 221 557 q 217 517 217 524 q 221 490 217 505 q 276 542 261 530 q 313 562 290 554 q 379 569 337 569 q 440 559 416 569 q 481 534 465 549 q 511 499 497 519 q 543 453 525 478 q 595 525 573 503 q 645 554 617 547 q 726 561 673 561 q 903 337 903 561 l 903 96 l 903 4 l 808 8 q 812 156 809 68 q 815 275 815 244 q 804 405 815 357 q 764 477 794 453 q 679 504 734 502 q 592 471 623 504 q 552 381 562 439 q 542 231 542 323 q 543 121 542 187 q 546 13 545 56 q 532 13 543 13 q 504 14 521 14 q 453 13 474 14 q 456 80 454 35 q 460 166 458 125 q 463 244 463 207 q 452 379 463 322 q 413 470 441 436 q 335 504 385 504 q 252 470 279 503 q 217 372 225 436 q 209 192 209 308 q 209 99 209 150 q 210 13 210 47 l 121 4 q 128 219 128 107 q 127 289 128 254 q 126 321 126 323 q 115 436 126 394 q 88 498 103 479 q 31 561 73 517 l 31 561 z "},"n":{"ha":643,"x_min":0,"x_max":569,"o":"m 0 525 q 120 532 42 527 q 201 537 198 537 q 204 529 204 536 q 196 489 204 520 q 189 439 189 457 q 367 542 278 542 q 569 290 569 542 l 550 7 l 471 7 q 479 270 479 136 l 479 318 q 434 459 479 424 q 340 494 388 494 q 237 446 272 494 q 193 329 202 398 q 183 170 183 260 l 183 13 l 103 13 l 103 374 q 0 525 103 470 l 0 525 z "},"o":{"ha":643,"x_min":4,"x_max":583,"o":"m 4 278 q 44 424 4 360 q 153 523 85 488 q 304 558 222 558 q 421 534 356 558 q 534 446 485 509 q 583 278 583 383 q 559 159 583 224 q 473 43 535 93 q 304 -7 411 -7 q 191 12 245 -7 q 94 67 136 31 q 28 157 52 104 q 4 278 4 211 l 4 278 m 290 521 q 179 472 221 518 q 120 370 137 426 q 103 278 103 314 q 135 138 103 195 q 211 54 167 81 q 290 28 256 28 q 388 64 342 28 q 460 159 434 101 q 487 278 487 217 q 461 402 487 347 q 390 489 435 458 q 290 521 345 521 l 290 521 z "},"p":{"ha":690,"x_min":-19,"x_max":621,"o":"m -19 440 q 31 436 8 436 q 110 453 84 436 q 171 508 136 470 q 247 565 207 546 q 361 585 287 585 q 418 572 377 585 q 506 529 459 560 q 587 440 553 498 q 621 297 621 382 q 592 168 621 234 q 505 59 563 102 q 361 15 446 15 q 182 90 260 15 q 203 108 189 96 q 229 131 218 121 q 244 146 239 141 q 285 82 251 99 q 340 62 319 64 q 399 76 359 62 q 479 144 439 90 q 518 303 518 197 q 498 417 518 363 q 439 503 479 470 q 340 536 398 536 q 269 513 310 536 q 198 437 229 489 q 168 303 168 385 l 168 -4 q 173 -108 168 -47 q 179 -192 179 -169 q 162 -264 179 -235 q 101 -314 146 -292 l 101 62 q 95 257 101 190 q 76 353 89 323 q 39 399 62 382 q -19 440 16 416 l -19 440 z "},"q":{"ha":600,"x_min":-3,"x_max":557,"o":"m -3 315 q 24 418 -3 360 q 111 518 50 475 q 270 561 172 561 q 557 554 270 561 q 501 487 523 520 q 479 441 479 454 l 479 326 q 482 133 479 200 q 488 9 484 65 q 492 -64 492 -46 q 488 -114 492 -85 q 450 -183 482 -155 q 376 -227 418 -212 q 293 -249 334 -242 q 234 -254 263 -253 q 188 -257 204 -256 l 194 -251 q 241 -220 224 -236 q 265 -190 257 -203 q 286 -149 273 -176 q 306 -171 292 -154 q 328 -191 320 -187 q 351 -196 336 -196 q 390 -174 366 -196 q 414 -121 414 -152 l 414 57 l 406 64 q 275 19 328 19 q 262 20 266 19 q 256 22 257 21 q 119 63 178 22 q 28 172 59 104 q -3 315 -3 239 l -3 315 m 276 528 q 144 474 195 528 q 92 315 92 419 q 119 172 92 231 q 188 85 147 114 q 270 57 230 57 q 345 80 312 57 q 396 142 378 103 q 414 227 414 181 q 388 443 414 358 q 276 528 363 528 l 276 528 z "},"r":{"ha":629,"x_min":-10,"x_max":601,"o":"m -10 571 q 57 563 9 563 q 303 582 135 563 q 435 541 385 582 q 485 446 485 500 q 453 364 485 398 q 379 308 422 330 q 285 271 335 287 q 231 253 234 254 q 280 227 247 239 q 326 207 313 214 q 353 182 340 201 q 438 86 382 137 q 525 35 494 35 q 554 38 544 35 q 601 46 565 42 q 554 9 578 17 q 485 1 529 1 q 383 32 428 1 q 279 128 337 63 q 203 212 221 194 q 158 231 185 231 q 156 199 157 221 q 154 144 154 176 q 166 8 154 66 l 52 8 q 60 97 54 37 q 70 197 67 157 q 74 283 74 237 q -10 571 74 468 l -10 571 m 280 532 q 235 535 264 535 q 156 511 178 535 q 133 440 133 487 q 142 351 133 413 q 152 260 150 289 q 329 356 266 306 q 392 453 392 407 q 362 508 389 491 q 280 532 336 526 l 280 532 z "},"s":{"ha":553,"x_min":4,"x_max":492,"o":"m 39 458 q 73 531 39 498 q 161 582 107 563 q 268 600 214 600 q 371 572 322 600 q 449 502 420 544 q 479 426 479 461 q 427 394 479 422 q 347 347 375 366 q 371 397 370 393 q 375 432 372 400 q 340 518 375 489 q 258 547 306 547 q 174 518 217 547 q 132 446 132 488 q 177 355 132 380 q 312 314 222 330 q 447 276 403 298 q 492 192 492 253 q 425 66 492 113 q 265 19 358 19 q 153 40 199 19 q 79 92 106 61 q 35 157 52 122 q 4 219 17 192 q 70 236 26 224 q 151 267 113 248 q 139 240 146 255 q 127 210 133 225 q 121 185 121 194 q 143 118 121 146 q 199 76 165 90 q 265 61 232 61 q 357 94 317 61 q 396 178 396 127 q 355 247 396 226 q 223 295 314 268 q 85 355 132 321 q 39 458 39 389 l 39 458 z "},"t":{"ha":653,"x_min":-32,"x_max":608,"o":"m -25 571 q 33 605 16 595 q 66 629 50 615 q 113 667 82 643 q 179 621 124 644 q 303 597 234 597 l 571 597 l 571 568 l 393 568 q 303 537 363 568 q 195 443 243 506 q 147 286 147 380 q 182 186 147 243 q 281 88 216 129 q 431 47 345 47 q 500 54 473 47 q 562 77 528 61 q 608 96 597 92 q 522 16 574 37 q 379 -4 471 -4 q 210 31 283 -4 q 97 133 137 67 q 57 286 57 200 q 83 393 57 346 q 145 473 109 441 q 220 532 180 506 q 265 564 260 559 l -32 564 l -25 571 l -25 571 z "},"u":{"ha":586,"x_min":14,"x_max":529,"o":"m 361 582 l 529 582 l 510 524 q 507 386 507 517 l 507 244 l 507 100 l 507 24 l 426 24 l 426 100 q 361 61 400 88 q 292 22 322 35 q 219 10 263 10 q 97 40 143 10 q 32 118 51 71 q 14 222 14 166 q 28 317 14 274 q 61 401 41 360 q 81 450 81 443 q 83 460 81 448 q 85 485 85 473 q 48 586 85 539 l 208 586 q 162 478 199 562 q 106 339 125 393 q 87 253 87 286 q 116 162 87 203 q 187 98 144 121 q 271 75 230 75 q 340 94 294 78 q 426 149 386 111 l 426 429 q 422 483 426 465 q 390 539 417 500 q 361 582 364 578 l 361 582 z "},"v":{"ha":604,"x_min":-29,"x_max":554,"o":"m 404 587 l 554 587 q 473 427 526 547 q 372 179 421 306 q 315 19 323 52 l 237 19 q 212 105 235 42 q 155 247 189 169 q 70 420 120 326 q -29 587 19 515 l 132 587 q 128 575 128 583 q 131 549 128 570 q 135 510 135 527 q 176 395 148 472 q 239 234 204 317 q 292 136 274 151 q 342 249 311 169 q 397 401 373 328 q 421 493 421 474 q 404 587 421 550 l 404 587 z "},"w":{"ha":900,"x_min":26,"x_max":822,"o":"m 646 578 q 728 579 683 579 q 818 581 773 579 l 822 503 q 812 409 817 481 q 804 293 806 337 l 804 257 q 806 150 804 189 q 811 69 807 110 q 817 17 815 28 l 725 17 q 729 128 729 79 q 667 65 690 89 q 619 31 643 42 q 554 19 595 19 q 504 24 524 19 q 471 38 484 29 q 432 76 458 47 q 403 108 406 105 q 371 82 392 100 q 321 46 349 64 q 259 16 292 28 q 193 4 227 4 q 124 27 164 4 q 55 96 84 50 q 26 207 26 142 q 43 316 26 273 q 87 403 60 358 q 114 468 114 448 q 99 509 114 475 q 57 581 85 544 l 243 581 q 201 502 231 551 q 153 420 171 453 q 121 344 135 387 q 107 253 107 301 q 154 128 107 178 q 272 78 201 78 q 341 102 297 78 q 385 142 385 125 q 373 180 385 155 q 360 239 360 204 q 371 312 360 281 q 404 393 382 344 q 425 460 425 441 q 406 504 425 466 q 375 572 387 543 l 554 572 q 530 531 552 564 q 490 464 508 498 q 458 381 472 431 q 443 275 443 332 q 485 149 443 205 q 585 92 528 92 q 657 116 623 92 q 713 172 692 141 q 734 214 734 202 l 734 403 q 723 458 734 430 q 698 509 712 486 q 668 551 683 531 q 646 578 652 570 l 646 578 z "},"x":{"ha":796,"x_min":-246,"x_max":728,"o":"m 551 612 q 466 589 511 612 q 383 534 422 566 q 319 476 345 503 q 286 443 293 450 q 245 496 284 445 q 167 576 207 547 q 75 606 126 606 q -24 549 11 606 q 24 553 -1 549 q 126 512 79 553 q 202 421 174 472 q 231 347 231 370 q 176 238 217 316 q 73 61 135 159 q -72 -139 11 -38 q -246 -310 -155 -239 q -71 -240 -146 -301 q 55 -99 4 -179 q 171 110 105 -18 q 271 290 237 239 q 317 224 283 280 q 385 123 351 169 q 468 43 419 78 q 575 8 517 8 q 679 51 638 8 q 728 157 719 94 q 668 175 697 160 q 608 197 638 191 q 624 173 616 185 q 636 150 631 161 q 640 124 640 138 q 617 78 640 96 q 575 61 593 61 q 463 131 522 61 q 364 270 403 200 q 308 374 325 339 q 349 428 308 378 q 435 518 390 477 q 507 560 480 560 q 546 549 531 560 q 567 496 561 538 q 630 528 597 506 q 681 571 664 550 q 615 596 656 584 q 551 612 574 607 l 551 612 z "},"y":{"ha":590,"x_min":10,"x_max":546,"o":"m 10 304 q 57 449 10 389 q 178 538 105 509 q 326 568 251 568 q 398 560 363 568 q 472 538 432 553 q 514 524 512 524 q 486 514 505 519 q 445 499 467 509 q 382 463 423 489 q 360 493 372 476 q 339 517 347 510 q 318 526 331 523 q 280 529 304 529 q 195 504 237 529 q 127 432 154 479 q 100 319 100 384 q 124 203 100 264 q 184 97 149 142 q 250 42 219 52 q 243 108 243 83 q 280 246 243 187 q 410 304 317 304 q 489 284 452 304 q 546 228 527 264 q 513 221 530 224 q 486 214 497 219 q 454 192 475 208 q 421 231 434 220 q 386 243 409 243 q 341 226 368 243 q 294 177 314 209 q 274 101 274 145 q 290 34 274 62 q 343 -39 307 5 q 397 -118 379 -82 q 415 -201 415 -154 q 397 -262 415 -227 q 339 -326 379 -298 q 235 -353 298 -353 q 157 -323 191 -353 q 123 -254 123 -294 q 142 -209 123 -227 q 188 -186 160 -192 q 174 -212 186 -190 q 162 -243 162 -234 q 189 -290 162 -268 q 243 -312 216 -312 q 321 -282 277 -312 q 364 -193 364 -251 q 326 -96 364 -132 q 196 5 288 -60 q 56 136 103 71 q 10 304 10 201 l 10 304 z "},"z":{"ha":720,"x_min":-165,"x_max":672,"o":"m 9 519 q 66 568 22 535 q 132 628 110 602 q 196 572 159 587 q 286 557 234 557 q 365 562 312 557 q 450 567 418 567 q 510 561 484 567 l 190 90 q 249 113 206 99 q 353 126 291 126 q 411 120 381 126 q 470 104 442 113 q 530 86 497 95 q 581 76 562 76 q 634 88 596 76 q 672 100 672 100 q 590 15 625 53 q 550 -26 556 -22 q 529 -31 544 -31 q 470 1 508 -31 q 397 51 433 33 q 296 70 361 70 q 204 54 235 63 q 161 31 174 44 q 126 -17 147 17 q 86 -78 106 -52 q -11 -267 -11 -195 q -4 -297 -11 -287 q -165 -328 -72 -297 q -19 -122 -115 -258 q 150 132 76 14 q 286 338 207 221 q 406 514 365 455 q 275 511 305 511 q 199 512 241 511 q 110 515 156 513 q 9 519 64 517 l 9 519 z "}}}
